<svg width="1200" height="675" viewBox="0 0 1200 675" fill="none" xmlns="http://www.w3.org/2000/svg">
  <defs>
    <linearGradient id="bg8" x1="0" y1="0" x2="1200" y2="675" gradientUnits="userSpaceOnUse">
      <stop stop-color="#0F172A"/>
      <stop offset="1" stop-color="#1E1B4B"/>
    </linearGradient>
  </defs>
  <rect width="1200" height="675" fill="url(#bg8)"/>
  <!-- Candlestick Chart Abstract -->
  <!-- Candle 1 (Green) -->
  <line x1="280" y1="280" x2="280" y2="440" stroke="#10B981" stroke-width="2"/>
  <rect x="268" y="320" width="24" height="80" rx="2" fill="#10B981"/>
  <!-- Candle 2 (Red) -->
  <line x1="360" y1="290" x2="360" y2="460" stroke="#EF4444" stroke-width="2"/>
  <rect x="348" y="330" width="24" height="90" rx="2" fill="#EF4444"/>
  <!-- Candle 3 (Green) -->
  <line x1="440" y1="240" x2="440" y2="420" stroke="#10B981" stroke-width="2"/>
  <rect x="428" y="270" width="24" height="110" rx="2" fill="#10B981"/>
  <!-- Candle 4 (Green) -->
  <line x1="520" y1="210" x2="520" y2="380" stroke="#10B981" stroke-width="2"/>
  <rect x="508" y="240" width="24" height="90" rx="2" fill="#10B981"/>
  <!-- Candle 5 (Red) -->
  <line x1="600" y1="230" x2="600" y2="390" stroke="#EF4444" stroke-width="2"/>
  <rect x="588" y="260" width="24" height="70" rx="2" fill="#EF4444"/>
  <!-- Candle 6 (Green) -->
  <line x1="680" y1="180" x2="680" y2="350" stroke="#10B981" stroke-width="2"/>
  <rect x="668" y="210" width="24" height="100" rx="2" fill="#10B981"/>
  <!-- Candle 7 (Green Breakout) -->
  <line x1="760" y1="140" x2="760" y2="320" stroke="#10B981" stroke-width="3"/>
  <rect x="746" y="170" width="28" height="110" rx="2" fill="#10B981"/>
  <!-- Candle 8 (Green High) -->
  <line x1="840" y1="110" x2="840" y2="280" stroke="#10B981" stroke-width="3"/>
  <rect x="826" y="130" width="28" height="110" rx="2" fill="#10B981"/>

  <!-- Moving Average Curves -->
  <path d="M 240 370 Q 450 320, 600 280 T 920 160" stroke="#38BDF8" stroke-width="4" fill="none"/>
  <path d="M 240 400 Q 480 360, 640 310 T 920 200" stroke="#F59E0B" stroke-width="2" stroke-dasharray="6 6" fill="none"/>

  <!-- Category Tag -->
  <g transform="translate(60, 60)">
    <rect width="100" height="32" rx="16" fill="#059669"/>
    <text x="50" y="20" fill="#FFFFFF" font-family="system-ui, sans-serif" font-size="12" font-weight="700" text-anchor="middle" letter-spacing="1">BISNIS</text>
  </g>
</svg>